<svg width="19" height="15" viewBox="0 0 19 15" fill="none" xmlns="http://www.w3.org/2000/svg">
<path d="M8.77308 14.5645L12.9974 10.3326C13.28 10.05 13.4404 9.66037 13.4404 9.25551V1.62426C13.4404 0.783981 12.7529 0.0964808 11.9127 0.0964808H5.0453C4.43419 0.0964808 3.88419 0.463148 3.64738 1.02079L1.15711 6.83398C0.507799 8.34648 1.61544 10.027 3.2578 10.027H7.57377L6.84808 13.5256C6.77169 13.9076 6.88627 14.2972 7.16127 14.5722C7.61197 15.0152 8.33002 15.0152 8.77308 14.5645ZM16.5036 0.0964808C15.6634 0.0964808 14.9759 0.783981 14.9759 1.62426V7.73537C14.9759 8.57565 15.6634 9.26315 16.5036 9.26315C17.3439 9.26315 18.0314 8.57565 18.0314 7.73537V1.62426C18.0314 0.783981 17.3439 0.0964808 16.5036 0.0964808Z" fill="#5464DB"/>
</svg>
