<svg width="19" height="15" viewBox="0 0 19 15" fill="none" xmlns="http://www.w3.org/2000/svg">
<path d="M10.2249 0.435463L5.99299 4.66741C5.71035 4.95005 5.54993 5.33963 5.54993 5.74449V13.3757C5.54993 14.216 6.23743 14.9035 7.07771 14.9035H13.9527C14.5638 14.9035 15.1138 14.5369 15.3583 13.9792L17.8485 8.16602C18.4902 6.65352 17.3826 4.97296 15.7402 4.97296H11.4242L12.1499 1.47435C12.2263 1.09241 12.1117 0.702824 11.8367 0.427824C11.386 -0.0152318 10.668 -0.0152318 10.2249 0.435463ZM2.49438 14.9035C3.33465 14.9035 4.02215 14.216 4.02215 13.3757V7.26463C4.02215 6.42435 3.33465 5.73685 2.49438 5.73685C1.6541 5.73685 0.966599 6.42435 0.966599 7.26463V13.3757C0.966599 14.216 1.6541 14.9035 2.49438 14.9035Z" fill="#5464DB"/>
</svg>
